# Exported from Wings 3D 2.2.4
mtllib holodeck_arena.mtl
o Arena_Backdrop
#61 vertices, 84 faces
v -22.46582490 9.80983607 -22.80845265
v -22.46582490 9.80983607 22.80845265
v -22.46582490 9.8360656e-3 -22.80845265
v -22.46582490 9.8360656e-3 22.80845265
v 23.15108040 9.80983607 -22.80845265
v 23.15108040 9.80983607 22.80845265
v 23.15108040 9.8360656e-3 -22.80845265
v 23.15108040 9.8360656e-3 22.80845265
v 23.15108040 4.10983607 22.80845265
v 23.15108040 4.10983607 -22.80845265
v 23.15108040 13.00983607 -3.2698278e-16
v 0.34262775 13.00983607 22.80845265
v -22.46582490 4.10983607 22.80845265
v 0.34262775 13.00983607 -22.80845265
v -22.46582490 4.10983607 -22.80845265
v -22.46582490 13.00983607 -3.2698278e-16
v -0.19327719 16.20983607 -1.7472362e-16
v -6.19550158 15.40983607 -6.00222438
v 5.80894719 15.40983607 -6.00222438
v 5.80894719 15.40983607 6.00222438
v -6.19550158 15.40983607 6.00222438
v -8.23625787 9.8360656e-3 8.04298067
v -8.23625787 9.8360656e-3 -8.04298067
v 7.84970348 9.8360656e-3 -8.04298067
v 7.84970348 9.8360656e-3 8.04298067
v -8.23625787 -10.99016393 8.04298067
v -8.23625787 -10.99016393 -8.04298067
v 7.84970348 -10.99016393 -8.04298067
v 7.84970348 -10.99016393 8.04298067
v -22.46582490 9.8360656e-3 4.56169053
v -22.46582490 9.8360656e-3 -4.56169053
v -22.46582490 4.10983607 4.56169053
v -22.46582490 4.10983607 -4.56169053
v 23.15108040 9.8360656e-3 4.56169053
v 23.15108040 9.8360656e-3 -4.56169053
v 23.15108040 4.10983607 -4.56169053
v 23.15108040 4.10983607 4.56169053
v 25.05108040 9.8360656e-3 4.56169053
v 25.05108040 9.8360656e-3 -4.56169053
v 25.05108040 4.10983607 -4.56169053
v 25.05108040 4.10983607 4.56169053
v -24.36582490 9.8360656e-3 -4.56169053
v -24.36582490 9.8360656e-3 4.56169053
v -24.36582490 4.10983607 4.56169053
v -24.36582490 4.10983607 -4.56169053
v -6.19550158 15.70983607 -1.7472362e-16
v 5.80894719 15.70983607 -1.7472362e-16
v -0.19327719 15.70983607 6.00222438
v -0.19327719 15.70983607 -6.00222438
v -22.46582490 11.40983607 11.40422632
v 11.74685408 11.40983607 -22.80845265
v 11.74685408 11.40983607 22.80845265
v 23.15108040 11.40983607 11.40422632
v 23.15108040 11.40983607 -11.40422632
v -11.06159857 11.40983607 22.80845265
v -11.06159857 11.40983607 -22.80845265
v -22.46582490 11.40983607 -11.40422632
v -24.36582490 9.8360656e-3 1.3977751e-15
v -22.46582490 9.8360656e-3 1.3977751e-15
v 25.05108040 9.8360656e-3 1.6016332e-15
v 23.15108040 9.8360656e-3 1.6016332e-15
vn 0.90453403 -0.30151134 -0.30151134
vn 0.90453403 -0.30151134 0.30151134
vn -0.90453403 -0.30151134 0.30151134
vn -0.90453403 -0.30151134 -0.30151134
vn 0.0000000e+0 0.70710678 -0.70710678
vn 0.0000000e+0 0.70710678 0.70710678
vn 0.0000000e+0 -0.70710678 0.70710678
vn 0.0000000e+0 -0.70710678 -0.70710678
vn 0.0000000e+0 0.70710678 0.70710678
vn 0.0000000e+0 0.70710678 -0.70710678
vn 0.0000000e+0 -0.70710678 -0.70710678
vn 0.0000000e+0 -0.70710678 0.70710678
vn 0.0000000e+0 1.00000000 0.0000000e+0
vn 0.0000000e+0 1.00000000 0.0000000e+0
vn 0.13635752 -0.97190749 0.19183966
vn 0.19359892 -0.97156532 0.13630951
vn -8.7445911e-16 0.0000000e+0 1.00000000
vn 1.00000000 0.0000000e+0 0.0000000e+0
vn 0.19359892 -0.97156532 -0.13630951
vn -8.7445911e-16 0.0000000e+0 -1.00000000
vn 0.13635752 -0.97190749 -0.19183966
vn 1.00000000 0.0000000e+0 0.0000000e+0
vn 0.0000000e+0 0.0000000e+0 1.00000000
vn 0.0000000e+0 1.00000000 0.0000000e+0
vn 0.0000000e+0 1.00000000 0.0000000e+0
vn 1.00000000 0.0000000e+0 0.0000000e+0
vn 0.0000000e+0 0.0000000e+0 -1.00000000
vn 0.0000000e+0 1.00000000 0.0000000e+0
vn 0.0000000e+0 1.00000000 0.0000000e+0
vn 1.00000000 0.0000000e+0 0.0000000e+0
vn -0.18204289 -0.97375372 0.13661654
vn 4.3722956e-16 0.0000000e+0 1.00000000
vn -1.00000000 0.0000000e+0 0.0000000e+0
vn -0.13658039 -0.97349603 0.18344285
vn -0.13658039 -0.97349603 -0.18344285
vn -1.00000000 0.0000000e+0 0.0000000e+0
vn -0.18204289 -0.97375372 -0.13661654
vn 4.3722956e-16 0.0000000e+0 -1.00000000
vn 0.0000000e+0 0.0000000e+0 1.00000000
vn -1.00000000 0.0000000e+0 0.0000000e+0
vn 0.0000000e+0 1.00000000 0.0000000e+0
vn 0.0000000e+0 1.00000000 0.0000000e+0
vn 0.0000000e+0 0.0000000e+0 -1.00000000
vn 0.0000000e+0 1.00000000 0.0000000e+0
vn 0.0000000e+0 1.00000000 0.0000000e+0
vn -1.00000000 0.0000000e+0 0.0000000e+0
vn 1.0930739e-16 0.0000000e+0 -1.00000000
vn 1.0930739e-16 0.0000000e+0 -1.00000000
vn 1.0930739e-16 0.0000000e+0 -1.00000000
vn -1.00000000 3.0392786e-16 0.0000000e+0
vn -1.00000000 3.0392786e-16 0.0000000e+0
vn -1.00000000 3.0392786e-16 0.0000000e+0
vn 1.0930739e-16 0.0000000e+0 -1.00000000
vn -1.00000000 3.0392786e-16 0.0000000e+0
vn -1.00000000 3.0392786e-16 0.0000000e+0
vn 1.0930739e-16 0.0000000e+0 1.00000000
vn -1.00000000 -3.0392786e-16 0.0000000e+0
vn 1.0930739e-16 0.0000000e+0 1.00000000
vn 1.0930739e-16 0.0000000e+0 1.00000000
vn -1.00000000 -3.0392786e-16 0.0000000e+0
vn -1.00000000 -3.0392786e-16 0.0000000e+0
vn 1.0930739e-16 0.0000000e+0 1.00000000
vn -1.00000000 -3.0392786e-16 0.0000000e+0
vn -1.00000000 -3.0392786e-16 0.0000000e+0
vn -1.00000000 0.0000000e+0 0.0000000e+0
vn -0.15364963 -0.98689346 4.9326386e-2
vn -0.18204289 -0.97375372 -0.13661654
vn -0.15364963 -0.98689346 -4.9326386e-2
vn -1.00000000 0.0000000e+0 0.0000000e+0
vn -1.00000000 0.0000000e+0 0.0000000e+0
vn -0.18204289 -0.97375372 0.13661654
vn -1.00000000 0.0000000e+0 0.0000000e+0
vn -1.00000000 0.0000000e+0 0.0000000e+0
vn -7.2871593e-17 0.0000000e+0 -1.00000000
vn -7.2871593e-17 0.0000000e+0 -1.00000000
vn -4.9300921e-2 -0.98638396 -0.15689517
vn 4.9276375e-2 -0.98589287 -0.15995964
vn 0.13635752 -0.97190749 -0.19183966
vn -0.13658039 -0.97349603 -0.18344285
vn -7.2871593e-17 0.0000000e+0 -1.00000000
vn -2.7326847e-16 0.0000000e+0 -1.00000000
vn -2.7326847e-16 0.0000000e+0 -1.00000000
vn -2.7326847e-16 0.0000000e+0 -1.00000000
vn 1.00000000 0.0000000e+0 0.0000000e+0
vn 1.00000000 0.0000000e+0 0.0000000e+0
vn 1.00000000 0.0000000e+0 0.0000000e+0
vn -2.7326847e-16 0.0000000e+0 -1.00000000
vn 1.00000000 0.0000000e+0 0.0000000e+0
vn 1.00000000 0.0000000e+0 0.0000000e+0
vn -7.2871593e-17 0.0000000e+0 1.00000000
vn -7.2871593e-17 0.0000000e+0 1.00000000
vn 4.9276375e-2 -0.98589287 0.15995964
vn -0.13658039 -0.97349603 0.18344285
vn -4.9300921e-2 -0.98638396 0.15689517
vn 0.13635752 -0.97190749 0.19183966
vn -7.2871593e-17 0.0000000e+0 1.00000000
vn -2.7326847e-16 0.0000000e+0 1.00000000
vn 1.00000000 0.0000000e+0 0.0000000e+0
vn -2.7326847e-16 0.0000000e+0 1.00000000
vn -2.7326847e-16 0.0000000e+0 1.00000000
vn 1.00000000 0.0000000e+0 0.0000000e+0
vn 1.00000000 0.0000000e+0 0.0000000e+0
vn -2.7326847e-16 0.0000000e+0 1.00000000
vn 1.00000000 0.0000000e+0 0.0000000e+0
vn 1.00000000 0.0000000e+0 0.0000000e+0
vn 0.16350887 -0.98531190 -4.9247338e-2
vn 1.00000000 0.0000000e+0 0.0000000e+0
vn 1.00000000 0.0000000e+0 0.0000000e+0
vn 1.00000000 0.0000000e+0 0.0000000e+0
vn 0.19359892 -0.97156532 0.13630951
vn 0.16350887 -0.98531190 4.9247338e-2
vn 1.00000000 0.0000000e+0 0.0000000e+0
vn 1.00000000 0.0000000e+0 0.0000000e+0
vn 0.19359892 -0.97156532 -0.13630951
vn 8.2912130e-2 -0.99531442 -4.9747278e-2
vn -8.2912130e-2 -0.99531442 4.9747278e-2
vn -4.9747278e-2 -0.99531442 -8.2912130e-2
vn 4.9747278e-2 -0.99531442 8.2912130e-2
vn 4.9747278e-2 -0.99531442 -8.2912130e-2
vn -4.9747278e-2 -0.99531442 8.2912130e-2
vn 8.2912130e-2 -0.99531442 4.9747278e-2
vn -8.2912130e-2 -0.99531442 -4.9747278e-2
vn 0.13635752 -0.97190749 0.19183966
vn 4.9276375e-2 -0.98589287 0.15995964
vn 0.19359892 -0.97156532 0.13630951
vn 0.16350887 -0.98531190 4.9247338e-2
vn 4.9747278e-2 -0.99531442 8.2912130e-2
vn 8.2912130e-2 -0.99531442 4.9747278e-2
vn 0.13635752 -0.97190749 0.19183966
vn 0.19359892 -0.97156532 0.13630951
vn -0.18204289 -0.97375372 0.13661654
vn -0.15364963 -0.98689346 4.9326386e-2
vn -0.13658039 -0.97349603 0.18344285
vn -4.9300921e-2 -0.98638396 0.15689517
vn -8.2912130e-2 -0.99531442 4.9747278e-2
vn -4.9747278e-2 -0.99531442 8.2912130e-2
vn -0.18204289 -0.97375372 0.13661654
vn -0.13658039 -0.97349603 0.18344285
vn -0.13658039 -0.97349603 -0.18344285
vn -4.9300921e-2 -0.98638396 -0.15689517
vn -0.18204289 -0.97375372 -0.13661654
vn -0.15364963 -0.98689346 -4.9326386e-2
vn -4.9747278e-2 -0.99531442 -8.2912130e-2
vn -8.2912130e-2 -0.99531442 -4.9747278e-2
vn -0.13658039 -0.97349603 -0.18344285
vn -0.18204289 -0.97375372 -0.13661654
vn 0.16350887 -0.98531190 -4.9247338e-2
vn 0.19359892 -0.97156532 -0.13630951
vn 4.9276375e-2 -0.98589287 -0.15995964
vn 0.13635752 -0.97190749 -0.19183966
vn 8.2912130e-2 -0.99531442 -4.9747278e-2
vn 4.9747278e-2 -0.99531442 -8.2912130e-2
vn 0.19359892 -0.97156532 -0.13630951
vn 0.13635752 -0.97190749 -0.19183966
vn 0.0000000e+0 1.00000000 0.0000000e+0
vn 0.0000000e+0 1.00000000 0.0000000e+0
vn 1.00000000 0.0000000e+0 0.0000000e+0
vn 0.0000000e+0 0.0000000e+0 -1.00000000
vn 0.0000000e+0 1.00000000 0.0000000e+0
vn 0.0000000e+0 1.00000000 0.0000000e+0
vn 1.00000000 0.0000000e+0 0.0000000e+0
vn 0.0000000e+0 0.0000000e+0 1.00000000
vn 0.0000000e+0 1.00000000 0.0000000e+0
vn 0.0000000e+0 1.00000000 0.0000000e+0
vn 0.0000000e+0 0.0000000e+0 1.00000000
vn -1.00000000 0.0000000e+0 0.0000000e+0
vn 0.0000000e+0 1.00000000 0.0000000e+0
vn 0.0000000e+0 1.00000000 0.0000000e+0
vn -1.00000000 0.0000000e+0 0.0000000e+0
vn 0.0000000e+0 0.0000000e+0 -1.00000000
vn 1.00000000 0.0000000e+0 0.0000000e+0
vn 0.0000000e+0 0.0000000e+0 -1.00000000
vn 1.00000000 0.0000000e+0 0.0000000e+0
vn 0.0000000e+0 0.0000000e+0 1.00000000
vn 0.0000000e+0 0.0000000e+0 1.00000000
vn -1.00000000 0.0000000e+0 0.0000000e+0
vn -1.00000000 0.0000000e+0 0.0000000e+0
vn 0.0000000e+0 0.0000000e+0 -1.00000000
vn 0.0000000e+0 1.00000000 0.0000000e+0
vn 0.81649658 0.40824829 -0.40824829
vn 0.81649658 0.40824829 -0.40824829
vn 0.81649658 0.40824829 -0.40824829
vn 0.81649658 0.40824829 -0.40824829
vn 0.81649658 0.40824829 0.40824829
vn 0.0000000e+0 1.00000000 0.0000000e+0
vn 0.81649658 0.40824829 0.40824829
vn 0.81649658 0.40824829 0.40824829
vn 0.81649658 0.40824829 0.40824829
vn 0.0000000e+0 1.00000000 0.0000000e+0
vn -0.81649658 0.40824829 -0.40824829
vn -0.81649658 0.40824829 -0.40824829
vn -0.81649658 0.40824829 -0.40824829
vn -0.81649658 0.40824829 -0.40824829
vn -0.81649658 0.40824829 0.40824829
vn 0.0000000e+0 1.00000000 0.0000000e+0
vn -0.81649658 0.40824829 0.40824829
vn -0.81649658 0.40824829 0.40824829
vn -0.81649658 0.40824829 0.40824829
vn 0.16350887 -0.98531190 -4.9247338e-2
vn 0.16350887 -0.98531190 4.9247338e-2
vn 8.2912130e-2 -0.99531442 -4.9747278e-2
vn 8.2912130e-2 -0.99531442 4.9747278e-2
vn -0.15364963 -0.98689346 4.9326386e-2
vn -0.15364963 -0.98689346 -4.9326386e-2
vn -8.2912130e-2 -0.99531442 4.9747278e-2
vn -8.2912130e-2 -0.99531442 -4.9747278e-2
vn -4.9300921e-2 -0.98638396 -0.15689517
vn 4.9276375e-2 -0.98589287 -0.15995964
vn -4.9747278e-2 -0.99531442 -8.2912130e-2
vn 4.9747278e-2 -0.99531442 -8.2912130e-2
vn 4.9276375e-2 -0.98589287 0.15995964
vn -4.9300921e-2 -0.98638396 0.15689517
vn 4.9747278e-2 -0.99531442 8.2912130e-2
vn -4.9747278e-2 -0.99531442 8.2912130e-2
vn 0.19359892 -0.97156532 -0.13630951
vn 1.00000000 0.0000000e+0 0.0000000e+0
vn 0.19359892 -0.97156532 -0.13630951
vn 1.00000000 0.0000000e+0 0.0000000e+0
vn 2.1861478e-16 0.0000000e+0 1.00000000
vn -0.13658039 -0.97349603 0.18344285
vn -0.13658039 -0.97349603 0.18344285
vn 2.1861478e-16 0.0000000e+0 1.00000000
vn -0.13658039 -0.97349603 -0.18344285
vn 2.1861478e-16 0.0000000e+0 -1.00000000
vn -0.13658039 -0.97349603 -0.18344285
vn 2.1861478e-16 0.0000000e+0 -1.00000000
vn -1.00000000 0.0000000e+0 0.0000000e+0
vn -0.18204289 -0.97375372 -0.13661654
vn -0.18204289 -0.97375372 -0.13661654
vn -1.00000000 0.0000000e+0 0.0000000e+0
vn -0.18204289 -0.97375372 0.13661654
vn -1.00000000 0.0000000e+0 0.0000000e+0
vn -0.18204289 -0.97375372 0.13661654
vn -1.00000000 0.0000000e+0 0.0000000e+0
vn -5.4653694e-16 0.0000000e+0 -1.00000000
vn 0.13635752 -0.97190749 -0.19183966
vn 0.13635752 -0.97190749 -0.19183966
vn -5.4653694e-16 0.0000000e+0 -1.00000000
vn 0.13635752 -0.97190749 0.19183966
vn -5.4653694e-16 0.0000000e+0 1.00000000
vn 0.13635752 -0.97190749 0.19183966
vn -5.4653694e-16 0.0000000e+0 1.00000000
vn 1.00000000 0.0000000e+0 0.0000000e+0
vn 0.19359892 -0.97156532 0.13630951
vn 0.19359892 -0.97156532 0.13630951
vn 1.00000000 0.0000000e+0 0.0000000e+0
vn 0.0000000e+0 1.00000000 0.0000000e+0
vn 0.0000000e+0 1.00000000 0.0000000e+0
vn 0.0000000e+0 1.00000000 0.0000000e+0
vn 0.0000000e+0 1.00000000 0.0000000e+0
vn 0.0000000e+0 1.00000000 0.0000000e+0
vn 0.0000000e+0 1.00000000 0.0000000e+0
g Arena_Backdrop_Glass
usemtl Glass
s 1
f 5//34 19//138 51//221
f 6//37 20//146 53//229
f 11//71 19//137 54//233
f 14//95 18//129 56//241
f 17//118 18//127 49//213
f 17//116 19//135 47//205
f 17//117 20//143 48//209
f 18//130 57//245 1//16
f 19//134 49//212 14//94
f 20//142 47//204 11//68
f 20//145 52//225 12//79
f 46//199 21//147 16//106
f 50//215 21//148 2//19
f 55//236 21//150 12//78
s 2
f 1//15 56//239 18//123
f 5//31 54//231 19//131
f 11//66 47//203 19//132
f 11//67 53//228 20//141
f 14//92 49//211 18//124
f 14//93 51//220 19//133
f 17//121 46//202 18//128
f 21//149 48//208 12//77
f 21//153 50//217 16//114
f 21//154 55//237 2//21
f 47//206 20//144 17//122
f 49//214 19//136 17//120
f 52//223 20//139 6//35
f 57//244 18//125 16//110
s 3
f 12//76 48//207 20//140
f 18//126 46//200 16//111
f 21//151 46//201 17//115
s 4
f 48//210 21//152 17//119
g Arena_Backdrop_default
usemtl default
s 1
f 3//25 23//160 24//163 7//41
f 4//28 22//155 23//159 3//24 31//185 59//247 30//179
f 8//45 25//168 22//156 4//29
f 34//189 61//250 35//195 7//42 24//164 25//167 8//44
s 2
f 22//157 26//171 27//173 23//161
f 23//162 27//174 28//175 24//165
f 24//166 28//176 29//177 25//169
f 25//170 29//178 26//172 22//158
s 3
f 1//18 57//246 15//104
f 2//22 13//88 50//218
f 4//30 30//180 13//85
f 7//40 35//194 10//61
f 9//55 34//193 8//46
f 9//54 53//230 11//73
f 10//64 35//198 36//3
f 10//57 36//3 11//65
f 10//60 54//232 5//33
f 11//69 37//4 9//52
f 13//89 30//183 32//1
f 13//86 32//1 16//113
f 15//105 31//188 3//26
f 16//109 15//102 57//243
f 16//107 33//2 15//98
f 16//108 50//216 13//84
f 30//182 43//10 44//11 32//1
f 32//1 44//11 45//12 33//2
f 33//2 16//112 32//1
f 33//2 31//184 15//101
f 33//2 45//12 42//9 31//186
f 35//196 39//6 40//7 36//3
f 36//3 37//4 11//70
f 37//4 34//190 9//51
f 37//4 41//8 38//5 34//192
f 40//7 41//8 37//4 36//3
f 42//9 58//13 59//249 31//187
f 53//227 9//50 6//36
f 54//234 10//63 11//72
f 59//248 58//13 43//10 30//181
f 60//14 61//251 34//191 38//5
f 61//252 60//14 39//6 35//197
s 4
f 2//20 55//235 13//82
f 3//23 7//39 10//58 15//99
f 6//38 9//53 52//226
f 10//56 14//90 15//97
f 10//62 51//222 14//96
f 12//74 9//47 13//81
f 12//80 13//87 55//238
f 12//75 52//224 9//48
f 13//83 9//49 8//43 4//27
f 15//103 56//242 1//17
f 51//219 10//59 5//32
f 56//240 15//100 14//91
