# Exported from Wings 3D 2.2.4
mtllib holodeck_arena.mtl
o Arena_Backdrop
#59 vertices, 79 faces
v -6.00222438 -4.10000000 -6.00222438
v -6.00222438 -4.10000000 6.00222438
v -6.00222438 0.0000000e+0 -6.00222438
v -6.00222438 0.0000000e+0 6.00222438
v 6.00222438 -4.10000000 -6.00222438
v 6.00222438 -4.10000000 6.00222438
v 6.00222438 0.0000000e+0 -6.00222438
v 6.00222438 0.0000000e+0 6.00222438
v 6.00222438 -2.05000000 6.00222438
v 6.00222438 -2.05000000 -6.00222438
v 6.00222438 -5.70000000 0.0000000e+0
v 0.0000000e+0 -5.70000000 6.00222438
v -6.00222438 -2.05000000 6.00222438
v 0.0000000e+0 -5.70000000 -6.00222438
v -6.00222438 -2.05000000 -6.00222438
v -6.00222438 -5.70000000 0.0000000e+0
v 0.0000000e+0 -6.60000000 0.0000000e+0
v -3.00111219 -6.20000000 -3.00111219
v 3.00111219 -6.20000000 -3.00111219
v 3.00111219 -6.20000000 3.00111219
v -3.00111219 -6.20000000 3.00111219
v -4.02149034 0.0000000e+0 4.02149034
v -4.02149034 0.0000000e+0 -4.02149034
v 4.02149034 0.0000000e+0 -4.02149034
v 4.02149034 0.0000000e+0 4.02149034
v -4.02149034 5.50000000 4.02149034
v -4.02149034 5.50000000 -4.02149034
v 4.02149034 5.50000000 -4.02149034
v 4.02149034 5.50000000 4.02149034
v -6.00222438 0.0000000e+0 2.00074146
v -6.00222438 0.0000000e+0 -2.00074146
v -6.00222438 -2.05000000 2.00074146
v -6.00222438 -2.05000000 -2.00074146
v 6.00222438 0.0000000e+0 2.00074146
v 6.00222438 0.0000000e+0 -2.00074146
v 6.00222438 -2.05000000 -2.00074146
v 6.00222438 -2.05000000 2.00074146
v 6.50222438 0.0000000e+0 2.00074146
v 6.50222438 0.0000000e+0 -2.00074146
v 6.50222438 -2.05000000 -2.00074146
v 6.50222438 -2.05000000 2.00074146
v -6.50222438 0.0000000e+0 -2.00074146
v -6.50222438 0.0000000e+0 2.00074146
v -6.50222438 -2.05000000 2.00074146
v -6.50222438 -2.05000000 -2.00074146
v -3.00111219 -6.35000000 0.0000000e+0
v 3.00111219 -6.35000000 0.0000000e+0
v 0.0000000e+0 -6.35000000 3.00111219
v 0.0000000e+0 -6.35000000 -3.00111219
v -6.00222438 -4.90000000 3.00111219
v 3.00111219 -4.90000000 -6.00222438
v 3.00111219 -4.90000000 6.00222438
v 6.00222438 -4.90000000 3.00111219
v 6.00222438 -4.90000000 -3.00111219
v -3.00111219 -4.90000000 6.00222438
v -3.00111219 -4.90000000 -6.00222438
v -6.00222438 -4.90000000 -3.00111219
v -6.50222438 0.0000000e+0 4.4408921e-16
v -6.00222438 0.0000000e+0 4.4408921e-16
vn 0.90453403 0.30151134 -0.30151134
vn 0.90453403 0.30151134 0.30151134
vn -0.90453403 0.30151134 0.30151134
vn -0.90453403 0.30151134 -0.30151134
vn 0.0000000e+0 -0.70710678 -0.70710678
vn 0.0000000e+0 -0.70710678 0.70710678
vn 0.0000000e+0 0.70710678 0.70710678
vn 0.0000000e+0 0.70710678 -0.70710678
vn 0.0000000e+0 -0.70710678 0.70710678
vn 0.0000000e+0 -0.70710678 -0.70710678
vn 0.0000000e+0 0.70710678 -0.70710678
vn 0.0000000e+0 0.70710678 0.70710678
vn 0.0000000e+0 -1.00000000 0.0000000e+0
vn 0.23760039 0.89133179 0.38610064
vn 0.38610064 0.89133179 0.23760039
vn 0.0000000e+0 0.0000000e+0 1.00000000
vn 1.00000000 0.0000000e+0 0.0000000e+0
vn 0.38610064 0.89133179 -0.23760039
vn 0.0000000e+0 0.0000000e+0 -1.00000000
vn 0.23760039 0.89133179 -0.38610064
vn 1.00000000 0.0000000e+0 0.0000000e+0
vn 0.0000000e+0 0.0000000e+0 1.00000000
vn 1.00000000 0.0000000e+0 0.0000000e+0
vn 0.0000000e+0 -1.00000000 0.0000000e+0
vn 0.0000000e+0 -1.00000000 0.0000000e+0
vn 0.0000000e+0 0.0000000e+0 -1.00000000
vn 0.0000000e+0 -1.00000000 0.0000000e+0
vn 0.0000000e+0 -1.00000000 0.0000000e+0
vn 1.00000000 0.0000000e+0 0.0000000e+0
vn -0.38610064 0.89133179 0.23760039
vn 0.0000000e+0 0.0000000e+0 1.00000000
vn -1.00000000 0.0000000e+0 0.0000000e+0
vn -0.23760039 0.89133179 0.38610064
vn -0.23760039 0.89133179 -0.38610064
vn -1.00000000 0.0000000e+0 0.0000000e+0
vn -0.38610064 0.89133179 -0.23760039
vn 0.0000000e+0 0.0000000e+0 -1.00000000
vn 0.0000000e+0 0.0000000e+0 1.00000000
vn -1.00000000 0.0000000e+0 0.0000000e+0
vn 0.0000000e+0 -1.00000000 0.0000000e+0
vn 0.0000000e+0 -1.00000000 0.0000000e+0
vn 0.0000000e+0 0.0000000e+0 -1.00000000
vn 0.0000000e+0 -1.00000000 0.0000000e+0
vn 0.0000000e+0 -1.00000000 0.0000000e+0
vn -1.00000000 0.0000000e+0 0.0000000e+0
vn 0.0000000e+0 0.0000000e+0 -1.00000000
vn 0.0000000e+0 0.0000000e+0 -1.00000000
vn 0.0000000e+0 0.0000000e+0 -1.00000000
vn -1.00000000 0.0000000e+0 0.0000000e+0
vn -1.00000000 0.0000000e+0 0.0000000e+0
vn -1.00000000 0.0000000e+0 0.0000000e+0
vn 0.0000000e+0 0.0000000e+0 -1.00000000
vn -1.00000000 0.0000000e+0 0.0000000e+0
vn 0.0000000e+0 0.0000000e+0 1.00000000
vn -1.00000000 0.0000000e+0 0.0000000e+0
vn 0.0000000e+0 0.0000000e+0 1.00000000
vn 0.0000000e+0 0.0000000e+0 1.00000000
vn -1.00000000 0.0000000e+0 0.0000000e+0
vn -1.00000000 0.0000000e+0 0.0000000e+0
vn 0.0000000e+0 0.0000000e+0 1.00000000
vn -1.00000000 0.0000000e+0 0.0000000e+0
vn -1.00000000 0.0000000e+0 0.0000000e+0
vn -0.21142629 0.97617539 4.8790681e-2
vn -0.38610064 0.89133179 -0.23760039
vn -0.21142629 0.97617539 -4.8790681e-2
vn -1.00000000 0.0000000e+0 0.0000000e+0
vn -1.00000000 0.0000000e+0 0.0000000e+0
vn -0.38610064 0.89133179 0.23760039
vn -1.00000000 0.0000000e+0 0.0000000e+0
vn -1.00000000 0.0000000e+0 0.0000000e+0
vn 0.0000000e+0 0.0000000e+0 -1.00000000
vn 0.0000000e+0 0.0000000e+0 -1.00000000
vn -4.8790681e-2 0.97617539 -0.21142629
vn 4.8790681e-2 0.97617539 -0.21142629
vn 0.23760039 0.89133179 -0.38610064
vn -0.23760039 0.89133179 -0.38610064
vn 0.0000000e+0 0.0000000e+0 -1.00000000
vn 0.0000000e+0 0.0000000e+0 -1.00000000
vn 0.0000000e+0 0.0000000e+0 -1.00000000
vn 0.0000000e+0 0.0000000e+0 -1.00000000
vn 1.00000000 0.0000000e+0 0.0000000e+0
vn 1.00000000 0.0000000e+0 0.0000000e+0
vn 1.00000000 0.0000000e+0 0.0000000e+0
vn 0.0000000e+0 0.0000000e+0 -1.00000000
vn 1.00000000 0.0000000e+0 0.0000000e+0
vn 0.0000000e+0 0.0000000e+0 1.00000000
vn 0.0000000e+0 0.0000000e+0 1.00000000
vn 4.8790681e-2 0.97617539 0.21142629
vn -0.23760039 0.89133179 0.38610064
vn -4.8790681e-2 0.97617539 0.21142629
vn 0.23760039 0.89133179 0.38610064
vn 0.0000000e+0 0.0000000e+0 1.00000000
vn 0.0000000e+0 0.0000000e+0 1.00000000
vn 1.00000000 0.0000000e+0 0.0000000e+0
vn 0.0000000e+0 0.0000000e+0 1.00000000
vn 0.0000000e+0 0.0000000e+0 1.00000000
vn 1.00000000 0.0000000e+0 0.0000000e+0
vn 1.00000000 0.0000000e+0 0.0000000e+0
vn 0.0000000e+0 0.0000000e+0 1.00000000
vn 1.00000000 0.0000000e+0 0.0000000e+0
vn 0.21142629 0.97617539 -4.8790681e-2
vn 1.00000000 0.0000000e+0 0.0000000e+0
vn 1.00000000 0.0000000e+0 0.0000000e+0
vn 1.00000000 0.0000000e+0 0.0000000e+0
vn 0.38610064 0.89133179 0.23760039
vn 0.21142629 0.97617539 4.8790681e-2
vn 1.00000000 0.0000000e+0 0.0000000e+0
vn 1.00000000 0.0000000e+0 0.0000000e+0
vn 0.38610064 0.89133179 -0.23760039
vn 8.2912130e-2 0.99531442 -4.9747278e-2
vn -8.2912130e-2 0.99531442 4.9747278e-2
vn -4.9747278e-2 0.99531442 -8.2912130e-2
vn 4.9747278e-2 0.99531442 8.2912130e-2
vn 4.9747278e-2 0.99531442 -8.2912130e-2
vn -4.9747278e-2 0.99531442 8.2912130e-2
vn 8.2912130e-2 0.99531442 4.9747278e-2
vn -8.2912130e-2 0.99531442 -4.9747278e-2
vn 0.23760039 0.89133179 0.38610064
vn 4.8790681e-2 0.97617539 0.21142629
vn 0.38610064 0.89133179 0.23760039
vn 0.21142629 0.97617539 4.8790681e-2
vn 4.9747278e-2 0.99531442 8.2912130e-2
vn 8.2912130e-2 0.99531442 4.9747278e-2
vn 0.23760039 0.89133179 0.38610064
vn 0.38610064 0.89133179 0.23760039
vn -0.38610064 0.89133179 0.23760039
vn -0.21142629 0.97617539 4.8790681e-2
vn -0.23760039 0.89133179 0.38610064
vn -4.8790681e-2 0.97617539 0.21142629
vn -8.2912130e-2 0.99531442 4.9747278e-2
vn -4.9747278e-2 0.99531442 8.2912130e-2
vn -0.38610064 0.89133179 0.23760039
vn -0.23760039 0.89133179 0.38610064
vn -0.23760039 0.89133179 -0.38610064
vn -4.8790681e-2 0.97617539 -0.21142629
vn -0.38610064 0.89133179 -0.23760039
vn -0.21142629 0.97617539 -4.8790681e-2
vn -4.9747278e-2 0.99531442 -8.2912130e-2
vn -8.2912130e-2 0.99531442 -4.9747278e-2
vn -0.23760039 0.89133179 -0.38610064
vn -0.38610064 0.89133179 -0.23760039
vn 0.21142629 0.97617539 -4.8790681e-2
vn 0.38610064 0.89133179 -0.23760039
vn 4.8790681e-2 0.97617539 -0.21142629
vn 0.23760039 0.89133179 -0.38610064
vn 8.2912130e-2 0.99531442 -4.9747278e-2
vn 4.9747278e-2 0.99531442 -8.2912130e-2
vn 0.38610064 0.89133179 -0.23760039
vn 0.23760039 0.89133179 -0.38610064
vn 0.0000000e+0 -1.00000000 0.0000000e+0
vn 0.0000000e+0 -1.00000000 0.0000000e+0
vn 1.00000000 0.0000000e+0 0.0000000e+0
vn 0.0000000e+0 0.0000000e+0 -1.00000000
vn 0.0000000e+0 -1.00000000 0.0000000e+0
vn 0.0000000e+0 -1.00000000 0.0000000e+0
vn 1.00000000 0.0000000e+0 0.0000000e+0
vn 0.0000000e+0 0.0000000e+0 1.00000000
vn 0.0000000e+0 -1.00000000 0.0000000e+0
vn 0.0000000e+0 -1.00000000 0.0000000e+0
vn 0.0000000e+0 0.0000000e+0 1.00000000
vn -1.00000000 0.0000000e+0 0.0000000e+0
vn 0.0000000e+0 -1.00000000 0.0000000e+0
vn 0.0000000e+0 -1.00000000 0.0000000e+0
vn -1.00000000 0.0000000e+0 0.0000000e+0
vn 0.0000000e+0 0.0000000e+0 -1.00000000
vn 1.00000000 0.0000000e+0 0.0000000e+0
vn 0.0000000e+0 0.0000000e+0 -1.00000000
vn 1.00000000 0.0000000e+0 0.0000000e+0
vn 0.0000000e+0 0.0000000e+0 1.00000000
vn 0.0000000e+0 0.0000000e+0 1.00000000
vn -1.00000000 0.0000000e+0 0.0000000e+0
vn -1.00000000 0.0000000e+0 0.0000000e+0
vn 0.0000000e+0 0.0000000e+0 -1.00000000
vn 0.0000000e+0 -1.00000000 0.0000000e+0
vn 0.57735027 -0.57735027 -0.57735027
vn 0.57735027 -0.57735027 -0.57735027
vn 0.57735027 -0.57735027 -0.57735027
vn 0.57735027 -0.57735027 0.57735027
vn 0.0000000e+0 -1.00000000 0.0000000e+0
vn 0.57735027 -0.57735027 0.57735027
vn 0.57735027 -0.57735027 0.57735027
vn 0.0000000e+0 -1.00000000 0.0000000e+0
vn -0.57735027 -0.57735027 -0.57735027
vn -0.57735027 -0.57735027 -0.57735027
vn -0.57735027 -0.57735027 -0.57735027
vn -0.57735027 -0.57735027 0.57735027
vn 0.0000000e+0 -1.00000000 0.0000000e+0
vn -0.57735027 -0.57735027 0.57735027
vn -0.57735027 -0.57735027 0.57735027
vn 0.21142629 0.97617539 -4.8790681e-2
vn 0.21142629 0.97617539 4.8790681e-2
vn 8.2912130e-2 0.99531442 -4.9747278e-2
vn 8.2912130e-2 0.99531442 4.9747278e-2
vn -0.21142629 0.97617539 4.8790681e-2
vn -0.21142629 0.97617539 -4.8790681e-2
vn -8.2912130e-2 0.99531442 4.9747278e-2
vn -8.2912130e-2 0.99531442 -4.9747278e-2
vn -4.8790681e-2 0.97617539 -0.21142629
vn 4.8790681e-2 0.97617539 -0.21142629
vn -4.9747278e-2 0.99531442 -8.2912130e-2
vn 4.9747278e-2 0.99531442 -8.2912130e-2
vn 4.8790681e-2 0.97617539 0.21142629
vn -4.8790681e-2 0.97617539 0.21142629
vn 4.9747278e-2 0.99531442 8.2912130e-2
vn -4.9747278e-2 0.99531442 8.2912130e-2
vn 0.38610064 0.89133179 -0.23760039
vn 1.00000000 0.0000000e+0 0.0000000e+0
vn 0.38610064 0.89133179 -0.23760039
vn 1.00000000 0.0000000e+0 0.0000000e+0
vn 0.0000000e+0 0.0000000e+0 1.00000000
vn -0.23760039 0.89133179 0.38610064
vn -0.23760039 0.89133179 0.38610064
vn 0.0000000e+0 0.0000000e+0 1.00000000
vn -0.23760039 0.89133179 -0.38610064
vn 0.0000000e+0 0.0000000e+0 -1.00000000
vn -0.23760039 0.89133179 -0.38610064
vn 0.0000000e+0 0.0000000e+0 -1.00000000
vn -1.00000000 0.0000000e+0 0.0000000e+0
vn -0.38610064 0.89133179 -0.23760039
vn -0.38610064 0.89133179 -0.23760039
vn -1.00000000 0.0000000e+0 0.0000000e+0
vn -0.38610064 0.89133179 0.23760039
vn -1.00000000 0.0000000e+0 0.0000000e+0
vn -0.38610064 0.89133179 0.23760039
vn -1.00000000 0.0000000e+0 0.0000000e+0
vn 0.0000000e+0 0.0000000e+0 -1.00000000
vn 0.23760039 0.89133179 -0.38610064
vn 0.23760039 0.89133179 -0.38610064
vn 0.0000000e+0 0.0000000e+0 -1.00000000
vn 0.23760039 0.89133179 0.38610064
vn 0.0000000e+0 0.0000000e+0 1.00000000
vn 0.23760039 0.89133179 0.38610064
vn 0.0000000e+0 0.0000000e+0 1.00000000
vn 1.00000000 0.0000000e+0 0.0000000e+0
vn 0.38610064 0.89133179 0.23760039
vn 0.38610064 0.89133179 0.23760039
vn 1.00000000 0.0000000e+0 0.0000000e+0
vn 0.0000000e+0 -1.00000000 0.0000000e+0
vn 0.0000000e+0 -1.00000000 0.0000000e+0
vn 0.0000000e+0 -1.00000000 0.0000000e+0
g Arena_Backdrop_Glass
usemtl Glass
s 1
f 1//15 57//236 18//125
f 2//18 21//143 50//206
f 6//34 20//134 52//214
f 12//75 21//145 55//227
f 14//90 49//203 19//129
f 16//101 21//142 46//190
f 18//123 46//193 17//116
f 20//136 53//219 11//64
f 47//196 19//130 17//111
f 48//200 20//138 17//112
f 51//212 19//133 5//33
f 54//224 19//132 11//68
f 56//232 18//124 14//91
s 2
f 2//20 55//228 21//149
f 12//74 48//199 21//144
f 12//76 52//216 20//140
f 16//106 46//191 18//121
f 16//109 50//208 21//148
f 17//115 19//131 49//205
f 17//117 20//139 47//197
f 17//110 46//192 21//146
f 18//119 49//202 14//88
f 18//118 56//230 1//14
f 19//127 47//194 11//63
f 19//128 51//211 14//89
f 19//126 54//222 5//30
f 53//220 20//141 6//36
s 3
f 11//65 47//195 20//137
f 16//105 18//120 57//235
f 17//114 21//147 48//201
f 20//135 48//198 12//73
f 49//204 18//122 17//113
g Arena_Backdrop_default
usemtl default
s 1
f 4//28 22//151 25//163 8//44
f 7//40 24//158 23//155 3//25
f 8//43 25//162 24//159 7//41 35//187 34//182
f 30//174 59//238 31//179 3//24 23//154 22//150 4//27
s 2
f 22//153 26//167 29//173 25//165
f 23//156 27//168 26//166 22//152
f 24//160 28//170 27//169 23//157
f 25//164 29//172 28//171 24//161
s 3
f 5//32 54//223 10//58
f 6//35 9//49 53//218
f 8//45 34//183 37//4 9//50
f 9//51 37//4 11//66
f 10//59 36//3 35//186 7//39
f 11//69 10//61 54//225
f 11//62 36//3 10//55
f 11//70 53//221 9//53
f 34//185 38//5 41//8 37//4
f 35//188 39//6 38//5 34//184
f 36//3 11//67 37//4
f 36//3 40//7 39//6 35//189
f 37//4 41//8 40//7 36//3
s 4
f 3//23 31//178 33//2 15//97
f 13//82 32//1 30//175 4//29
f 13//81 50//207 16//103
f 15//94 33//2 16//102
f 15//100 57//237 1//17
f 16//108 32//1 13//83
f 30//176 43//10 58//13 59//239
f 31//180 42//9 45//12 33//2
f 31//181 59//240 58//13 42//9
f 32//1 16//107 33//2
f 32//1 44//11 43//10 30//177
f 33//2 45//12 44//11 32//1
f 50//209 13//85 2//21
f 57//234 15//98 16//104
s 5
f 1//16 56//233 15//99
f 4//26 8//42 9//48 13//80
f 5//31 10//57 51//210
f 9//47 52//215 12//72
f 13//78 9//46 12//71
f 13//79 55//226 2//19
f 14//87 15//96 56//231
f 14//92 51//213 10//60
f 15//95 10//56 7//38 3//22
f 15//93 14//86 10//54
f 52//217 9//52 6//37
f 55//229 13//84 12//77
