# Exported from Wings 3D 2.2.5
mtllib avatar.mtl
o Avatar
#26 vertices, 28 faces
v 0.0000000e+0 0.50000000 0.0000000e+0
v -0.91905922 2.23299469 0.0000000e+0
v 0.0000000e+0 2.23299469 0.91905922
v 0.0000000e+0 2.23299469 -0.91905922
v 0.91905922 2.23299469 0.0000000e+0
v -0.57435914 2.44066549 0.0000000e+0
v 0.0000000e+0 2.44066549 0.57435914
v 0.57435914 2.44066549 0.0000000e+0
v 0.0000000e+0 2.44066549 -0.57435914
v 0.0000000e+0 2.36649734 0.81643466
v 0.81643466 2.36649734 0.0000000e+0
v -0.61270615 2.23299469 0.61270615
v -0.61270615 2.23299469 -0.61270615
v 0.61270615 2.23299469 0.61270615
v 0.61270615 2.23299469 -0.61270615
v -0.37400914 2.46662434 0.37400914
v -0.81643466 2.36649734 0.0000000e+0
v 0.37400914 2.46662434 0.37400914
v 0.37400914 2.46662434 -0.37400914
v -0.37400914 2.46662434 -0.37400914
v 0.0000000e+0 2.36649734 -0.81643466
v 0.0000000e+0 2.50000000 0.0000000e+0
v -0.54428977 2.36649734 -0.54428977
v 0.54428977 2.36649734 -0.54428977
v -0.54428977 2.36649734 0.54428977
v 0.54428977 2.36649734 0.54428977
vn 0.40406102 -0.42857143 0.80812204
vn -0.40406102 -0.42857143 -0.80812204
vn 0.80812204 -0.42857143 -0.40406102
vn -0.80812204 -0.42857143 0.40406102
vn 0.80812204 -0.42857143 0.40406102
vn -0.80812204 -0.42857143 -0.40406102
vn 0.40406102 -0.42857143 -0.80812204
vn -0.40406102 -0.42857143 0.80812204
vn -0.80812204 -0.42857143 0.40406102
vn -0.73702714 0.56655868 -0.36851357
vn -0.73702714 0.56655868 0.36851357
vn -0.80812204 -0.42857143 -0.40406102
vn 0.40406102 -0.42857143 0.80812204
vn -0.36851357 0.56655868 0.73702714
vn 0.36851357 0.56655868 0.73702714
vn -0.40406102 -0.42857143 0.80812204
vn -0.40406102 -0.42857143 -0.80812204
vn -0.36851357 0.56655868 -0.73702714
vn 0.36851357 0.56655868 -0.73702714
vn 0.40406102 -0.42857143 -0.80812204
vn 0.80812204 -0.42857143 -0.40406102
vn 0.73702714 0.56655868 -0.36851357
vn 0.73702714 0.56655868 0.36851357
vn 0.80812204 -0.42857143 0.40406102
vn -0.10275873 0.99470631 0.0000000e+0
vn -0.33366897 0.93141680 -0.14535395
vn -0.33366897 0.93141680 0.14535395
vn 0.0000000e+0 0.99470631 0.10275873
vn -0.14535395 0.93141680 0.33366897
vn 0.14535395 0.93141680 0.33366897
vn 0.10275873 0.99470631 0.0000000e+0
vn 0.33366897 0.93141680 -0.14535395
vn 0.33366897 0.93141680 0.14535395
vn 0.0000000e+0 0.99470631 -0.10275873
vn -0.14535395 0.93141680 -0.33366897
vn 0.14535395 0.93141680 -0.33366897
vn -0.14535395 0.93141680 0.33366897
vn -0.36851357 0.56655868 0.73702714
vn 0.36851357 0.56655868 0.73702714
vn 0.14535395 0.93141680 0.33366897
vn 0.73702714 0.56655868 -0.36851357
vn 0.33366897 0.93141680 -0.14535395
vn 0.33366897 0.93141680 0.14535395
vn 0.73702714 0.56655868 0.36851357
vn -0.80812204 -0.42857143 0.40406102
vn -0.36851357 0.56655868 0.73702714
vn -0.73702714 0.56655868 0.36851357
vn -0.40406102 -0.42857143 0.80812204
vn -0.40406102 -0.42857143 -0.80812204
vn -0.73702714 0.56655868 -0.36851357
vn -0.36851357 0.56655868 -0.73702714
vn -0.80812204 -0.42857143 -0.40406102
vn 0.40406102 -0.42857143 0.80812204
vn 0.36851357 0.56655868 0.73702714
vn 0.73702714 0.56655868 0.36851357
vn 0.80812204 -0.42857143 0.40406102
vn 0.80812204 -0.42857143 -0.40406102
vn 0.73702714 0.56655868 -0.36851357
vn 0.36851357 0.56655868 -0.73702714
vn 0.40406102 -0.42857143 -0.80812204
vn 0.0000000e+0 0.99470631 0.10275873
vn -0.10275873 0.99470631 0.0000000e+0
vn -0.14535395 0.93141680 0.33366897
vn -0.33366897 0.93141680 0.14535395
vn -0.73702714 0.56655868 -0.36851357
vn -0.33366897 0.93141680 -0.14535395
vn -0.73702714 0.56655868 0.36851357
vn -0.33366897 0.93141680 0.14535395
vn 0.0000000e+0 0.99470631 0.10275873
vn 0.10275873 0.99470631 0.0000000e+0
vn 0.14535395 0.93141680 0.33366897
vn 0.33366897 0.93141680 0.14535395
vn 0.0000000e+0 0.99470631 -0.10275873
vn 0.10275873 0.99470631 0.0000000e+0
vn 0.33366897 0.93141680 -0.14535395
vn 0.14535395 0.93141680 -0.33366897
vn -0.10275873 0.99470631 0.0000000e+0
vn 0.0000000e+0 0.99470631 -0.10275873
vn -0.14535395 0.93141680 -0.33366897
vn -0.33366897 0.93141680 -0.14535395
vn -0.36851357 0.56655868 -0.73702714
vn -0.14535395 0.93141680 -0.33366897
vn 0.14535395 0.93141680 -0.33366897
vn 0.36851357 0.56655868 -0.73702714
vn 0.0000000e+0 0.99470631 0.10275873
vn -0.10275873 0.99470631 0.0000000e+0
vn 0.0000000e+0 0.99470631 -0.10275873
vn 0.10275873 0.99470631 0.0000000e+0
vn -0.73702714 0.56655868 -0.36851357
vn -0.36851357 0.56655868 -0.73702714
vn -0.14535395 0.93141680 -0.33366897
vn -0.33366897 0.93141680 -0.14535395
vn 0.73702714 0.56655868 -0.36851357
vn 0.33366897 0.93141680 -0.14535395
vn 0.14535395 0.93141680 -0.33366897
vn 0.36851357 0.56655868 -0.73702714
vn -0.14535395 0.93141680 0.33366897
vn -0.36851357 0.56655868 0.73702714
vn -0.73702714 0.56655868 0.36851357
vn -0.33366897 0.93141680 0.14535395
vn 0.36851357 0.56655868 0.73702714
vn 0.14535395 0.93141680 0.33366897
vn 0.33366897 0.93141680 0.14535395
vn 0.73702714 0.56655868 0.36851357
g Avatar_Glass
usemtl Glass
s 1
f 1//4 12//45 2//9
f 1//1 14//53 3//13
f 1//3 15//57 5//21
f 6//25 16//62 22//86 20//77
f 10//38 25//98 12//46 3//14
f 13//51 23//90 21//81 4//18
f 18//72 26//103 11//43 8//33
f 19//76 24//95 21//83 9//36
s 2
f 1//2 13//49 4//17
f 3//16 12//48 1//8
f 3//15 14//54 26//101 10//39
f 5//24 14//56 1//5
f 5//22 15//58 24//93 11//41
f 7//28 18//69 22//85 16//61
f 9//34 20//78 22//87 19//73
f 12//47 25//99 17//67 2//11
f 20//80 23//92 17//66 6//26
s 3
f 4//20 15//60 1//7
f 6//27 17//68 25//100 16//64
f 8//31 19//74 22//88 18//70
f 9//35 21//82 23//91 20//79
f 10//40 26//102 18//71 7//30
f 11//44 26//104 14//55 5//23
f 17//65 23//89 13//50 2//10
s 4
f 2//12 13//52 1//6
f 11//42 24//94 19//75 8//32
f 16//63 25//97 10//37 7//29
f 21//84 24//96 15//59 4//19
